# xmcd
#
# Track frame offsets:
#	150
#	12263
#	26081
#	37066
#	50740
#	65408
#	77065
#	93724
#	106475
#	121385
#	137395
#	148423
#	165386
#	179768
#	194567
#	209389
#
# Disc length: 3019 seconds
# Revision: 1
# Processed by: cddbd v1.5.2PL0 Copyright (c) Steve Scherf et al.
# Submitted via: dBpowerAMP V12.0
#
DISCID=f20bc910
DTITLE=Chris Thile and Michael Daves - Sleep with One Eye Open
DYEAR=2011
DGENRE=Country
TTITLE0=Rabbit in the Log
TTITLE1=Cry, Cry Darling
TTITLE2=Loneliness and Desperation
TTITLE3=Tennessee Blues
TTITLE4=20/20 Vision
TTITLE5=You're Running Wild
TTITLE6=Ookpik Waltz
TTITLE7=My Little Girl in Tennessee
TTITLE8=Sleep with One Eye Open
TTITLE9=Rain and Snow
TTITLE10=Mississippi Waltz
TTITLE11=Bury Me Beneath the Willow
TTITLE12=Roll in My Sweet Baby's Arms
TTITLE13=Billy in the Lowground
TTITLE14=It Takes One to Know One
TTITLE15=If I Should Wander Back Tonight
EXTD=
EXTT0=
EXTT1=
EXTT2=
EXTT3=
EXTT4=
EXTT5=
EXTT6=
EXTT7=
EXTT8=
EXTT9=
EXTT10=
EXTT11=
EXTT12=
EXTT13=
EXTT14=
EXTT15=
PLAYORDER=
